<?xml version="1.0" encoding="utf-8"?>
<!-- Generator: Adobe Illustrator 18.1.1, SVG Export Plug-In . SVG Version: 6.00 Build 0)  -->
<svg version="1.1" id="图层_1" xmlns="http://www.w3.org/2000/svg" xmlns:xlink="http://www.w3.org/1999/xlink" x="0px" y="0px"
	 viewBox="0 0 184 168.7" enable-background="new 0 0 184 168.7" xml:space="preserve">
<rect x="7.5" y="7.5" fill="#0071BC" stroke="#0071BC" stroke-width="15" stroke-miterlimit="10" width="169" height="153.7"/>
<g>
	<g>
		<linearGradient id="SVGID_1_" gradientUnits="userSpaceOnUse" x1="27.1666" y1="42.7706" x2="175.1665" y2="42.7706">
			<stop  offset="0" style="stop-color:#FFFFFF"/>
			<stop  offset="0" style="stop-color:#BBBBBB"/>
			<stop  offset="0" style="stop-color:#131313"/>
			<stop  offset="0" style="stop-color:#000000"/>
		</linearGradient>
		<line fill="url(#SVGID_1_)" x1="27.2" y1="42.8" x2="175.2" y2="42.8"/>
		<path fill="#E8E8E8" d="M27.2,42.3c0,0,0.6-0.3,1.7-0.8c1.1-0.5,2.7-1.3,4.7-2.1c2-0.9,4.5-1.8,7.3-2.9c1.4-0.5,2.9-1,4.5-1.6
			c0.8-0.3,1.6-0.3,2.4-0.1c0.8,0.1,1.7,0.1,2.5,0.1c13.8,0,32.3,0,50.8,0c18.5,0,36.9,0,50.8,0c0.9,0,1.7,0.1,2.5-0.1
			c0.4-0.1,0.8-0.1,1.2-0.1c0.4,0,0.8,0.2,1.2,0.3c1.6,0.6,3.1,1.1,4.5,1.6c2.8,1.1,5.3,2,7.3,2.9c2,0.8,3.6,1.6,4.7,2.1
			c1.1,0.5,1.7,0.8,1.7,0.8s-0.6,0.3-1.7,0.8c-1.1,0.5-2.7,1.2-4.7,2.1c-2,0.9-4.5,1.8-7.3,2.9c-1.4,0.5-2.9,1.1-4.5,1.6
			c-0.4,0.1-0.8,0.3-1.2,0.3c-0.4,0-0.8-0.1-1.2-0.1c-0.8-0.1-1.7,0-2.5-0.1c-13.8,0-32.3,0-50.8,0c-18.5,0-36.9,0-50.8,0
			c-0.9,0-1.7-0.1-2.5,0.1c-0.8,0.1-1.6,0.2-2.4-0.1c-1.6-0.6-3.1-1.1-4.5-1.6c-2.8-1.1-5.3-2-7.3-2.9c-2-0.8-3.6-1.6-4.7-2.1
			C27.7,42.6,27.2,42.3,27.2,42.3z"/>
	</g>
	<linearGradient id="SVGID_2_" gradientUnits="userSpaceOnUse" x1="35.8332" y1="82.854" x2="60.4999" y2="82.854">
		<stop  offset="0" style="stop-color:#FFFFFF"/>
		<stop  offset="0" style="stop-color:#BBBBBB"/>
		<stop  offset="0" style="stop-color:#131313"/>
		<stop  offset="0" style="stop-color:#000000"/>
	</linearGradient>
	
		<line fill="url(#SVGID_2_)" stroke="#E8E8E8" stroke-width="15" stroke-miterlimit="10" x1="60.5" y1="42.3" x2="35.8" y2="123.4"/>
	<linearGradient id="SVGID_3_" gradientUnits="userSpaceOnUse" x1="55.3349" y1="124.1742" x2="143.8273" y2="124.1742">
		<stop  offset="0" style="stop-color:#FFFFFF"/>
		<stop  offset="0" style="stop-color:#BBBBBB"/>
		<stop  offset="0" style="stop-color:#131313"/>
		<stop  offset="0" style="stop-color:#000000"/>
	</linearGradient>
	
		<line fill="url(#SVGID_3_)" stroke="#E8E8E8" stroke-width="15" stroke-miterlimit="10" x1="55.3" y1="124.1" x2="143.8" y2="124.2"/>
	<linearGradient id="SVGID_4_" gradientUnits="userSpaceOnUse" x1="88.1666" y1="82" x2="113.4999" y2="82">
		<stop  offset="0" style="stop-color:#FFFFFF"/>
		<stop  offset="0" style="stop-color:#BBBBBB"/>
		<stop  offset="0" style="stop-color:#131313"/>
		<stop  offset="0" style="stop-color:#000000"/>
	</linearGradient>
	
		<line fill="url(#SVGID_4_)" stroke="#E8E8E8" stroke-width="15" stroke-miterlimit="10" x1="88.2" y1="124.3" x2="113.5" y2="39.7"/>
	<linearGradient id="SVGID_5_" gradientUnits="userSpaceOnUse" x1="137.4913" y1="108.8254" x2="156.0893" y2="108.8254">
		<stop  offset="0" style="stop-color:#FFFFFF"/>
		<stop  offset="0" style="stop-color:#BBBBBB"/>
		<stop  offset="0" style="stop-color:#131313"/>
		<stop  offset="0" style="stop-color:#000000"/>
	</linearGradient>
	
		<line fill="url(#SVGID_5_)" stroke="#E8E8E8" stroke-width="15" stroke-miterlimit="10" x1="137.5" y1="127.6" x2="156.1" y2="90.1"/>
	<g>
		<linearGradient id="SVGID_6_" gradientUnits="userSpaceOnUse" x1="130.4999" y1="89.3123" x2="165.1665" y2="89.3123">
			<stop  offset="0" style="stop-color:#FFFFFF"/>
			<stop  offset="0" style="stop-color:#BBBBBB"/>
			<stop  offset="0" style="stop-color:#131313"/>
			<stop  offset="0" style="stop-color:#000000"/>
		</linearGradient>
		<line fill="url(#SVGID_6_)" x1="130.5" y1="89.4" x2="165.2" y2="89.3"/>
		<path fill="#E8E8E8" d="M130.5,89.4c0,0,0.1-0.3,0.4-0.8c0.3-0.5,0.6-1.3,1.1-2.1c0.2-0.4,0.5-0.9,0.8-1.4c0.3-0.5,0.6-1,0.9-1.5
			c0.3-0.5,0.7-1.1,1-1.7c0.2-0.3,0.4-0.3,0.6-0.1c0.2,0.1,0.4,0.1,0.6,0.1c3.3,0,7.6,0,11.9,0c4.3,0,8.7,0,11.9,0
			c0.2,0,0.4,0.1,0.6-0.1c0.1-0.1,0.2-0.1,0.3-0.1c0.1,0,0.2,0.2,0.3,0.3c0.4,0.6,0.7,1.1,1.1,1.7c0.7,1,1.2,2,1.7,2.9
			c0.5,0.8,0.9,1.6,1.1,2.1c0.3,0.5,0.4,0.8,0.4,0.8s-0.1,0.3-0.4,0.8c-0.3,0.5-0.6,1.3-1.1,2.1c-0.5,0.8-1,1.9-1.7,2.9
			c-0.3,0.5-0.7,1.1-1,1.7c-0.1,0.2-0.2,0.3-0.3,0.3c-0.1,0-0.2-0.1-0.3-0.1c-0.2-0.1-0.4,0-0.6-0.1c-3.3,0-7.6,0-11.9,0
			c-4.3,0-8.7,0-11.9,0c-0.2,0-0.4,0-0.6,0.1c-0.2,0.2-0.4,0.2-0.6-0.1c-0.4-0.6-0.7-1.1-1.1-1.7c-0.3-0.5-0.6-1-0.9-1.5
			c-0.3-0.5-0.6-1-0.8-1.4c-0.5-0.8-0.9-1.6-1.1-2.1C130.6,89.6,130.5,89.4,130.5,89.4z"/>
	</g>
	<g>
		<linearGradient id="SVGID_7_" gradientUnits="userSpaceOnUse" x1="6.1667" y1="124.2706" x2="121.1664" y2="124.2706">
			<stop  offset="0" style="stop-color:#FFFFFF"/>
			<stop  offset="0" style="stop-color:#BBBBBB"/>
			<stop  offset="0" style="stop-color:#131313"/>
			<stop  offset="0" style="stop-color:#000000"/>
		</linearGradient>
		<line fill="url(#SVGID_7_)" x1="6.2" y1="124.2" x2="121.2" y2="124.4"/>
		<path fill="#E8E8E8" d="M6.2,124.2c0,0,0.4-0.3,1.3-0.8c0.8-0.5,2.1-1.3,3.7-2.1c1.6-0.9,3.5-1.8,5.7-2.9c1.1-0.5,2.3-1,3.5-1.6
			c0.6-0.3,1.2-0.3,1.9-0.1c0.6,0.1,1.3,0.1,2,0.1c10.8,0,25.2,0.1,39.5,0.1c14.4,0,28.7,0.1,39.5,0.1c0.7,0,1.3,0.1,2-0.1
			c0.3-0.1,0.6-0.1,1-0.1c0.3,0,0.6,0.2,0.9,0.3c1.2,0.6,2.4,1.1,3.5,1.6c2.2,1.1,4.1,2,5.7,2.9c1.6,0.8,2.8,1.6,3.6,2.1
			c0.8,0.5,1.3,0.8,1.3,0.8s-0.4,0.3-1.3,0.8c-0.8,0.5-2.1,1.2-3.7,2.1c-1.6,0.9-3.5,1.8-5.7,2.9c-1.1,0.5-2.3,1.1-3.5,1.6
			c-0.3,0.1-0.6,0.3-0.9,0.3c-0.3,0-0.6-0.1-1-0.1c-0.6-0.1-1.3,0-2-0.1c-10.8,0-25.2-0.1-39.5-0.1c-14.4,0-28.7-0.1-39.5-0.1
			c-0.7,0-1.3-0.1-2,0.1c-0.6,0.1-1.3,0.2-1.9-0.1c-1.2-0.6-2.4-1.1-3.5-1.6c-2.2-1.1-4.1-2.1-5.7-2.9c-1.6-0.8-2.8-1.6-3.6-2.1
			C6.6,124.5,6.2,124.2,6.2,124.2z"/>
	</g>
</g>
</svg>
